<svg xmlns="http://www.w3.org/2000/svg" viewBox="19.818 10.775 342.374 52.965" role="img" aria-label="StrangeDaysTech">
  <title>StrangeDaysTech</title>
  <path fill="#1f1d1a" d="m 34.988398,50.832 q -2.288,0 -3.952,-0.598 -1.638,-0.572 -2.652,-1.118 -0.988,-0.546 -1.43,-0.546 -0.442,0 -0.702,0.338 -0.234,0.338 -0.442,0.78 -0.208,0.442 -0.494,0.78 -0.26,0.364 -0.702,0.364 -0.442,0 -0.728,-0.286 -0.26,-0.26 -0.364,-0.858 l -1.924,-8.216 q -0.104,-0.468 0.078,-0.806 0.208,-0.364 0.65,-0.52 0.546,-0.182 0.91,0.026 0.39,0.208 0.624,0.754 1.378,2.808 3.12,4.524 1.742,1.69 3.692,2.47 1.976,0.754 4.004,0.754 2.912,0 4.55,-1.56 1.664,-1.586 1.664,-4.108 0.026,-1.612 -0.702,-2.964 -0.728,-1.378 -2.756,-2.626 -2.028,-1.274 -5.928,-2.6 -3.874,-1.326 -6.24,-2.99 -2.34,-1.664 -3.406,-3.822 -1.04,-2.184 -1.04,-4.94 0,-3.068 1.404,-5.33 1.43,-2.288 4.004,-3.562 2.574,-1.274 5.98,-1.274 2.418,0 3.978,0.546 1.586,0.546 2.522,1.092 0.936,0.546 1.534,0.546 0.572,0 0.78,-0.546 0.208,-0.546 0.442,-1.092 0.234,-0.572 0.884,-0.572 0.468,0 0.728,0.286 0.286,0.286 0.52,1.04 l 2.522,8.476 q 0.156,0.546 -0.052,0.988 -0.182,0.416 -0.65,0.598 -0.494,0.13 -0.884,-0.052 -0.364,-0.182 -0.65,-0.676 -1.534,-3.172 -3.354,-5.018 -1.794,-1.872 -3.77,-2.678 -1.976,-0.806 -4.056,-0.806 -2.99,0 -4.784,1.716 -1.768,1.716 -1.768,4.498 0,1.638 0.754,3.068 0.754,1.404 2.704,2.73 1.976,1.326 5.668,2.704 4.03,1.482 6.396,3.146 2.366,1.638 3.38,3.666 1.014,2.002 1.014,4.602 -0.026,2.652 -1.326,4.862 -1.274,2.184 -3.744,3.51 -2.444,1.3 -6.006,1.3 z m 16.692021,-23.114 -1.404,-0.364 q -0.65,-0.182 -0.91,-0.39 -0.234,-0.234 -0.234,-0.572 0,-0.39 0.286,-0.598 0.286,-0.208 0.78,-0.208 h 1.638 q 0.702,0 1.118,-0.208 0.416,-0.234 0.78,-0.806 l 2.08,-3.796 q 0.364,-0.624 0.728,-0.884 0.39,-0.286 0.832,-0.286 0.442,0 0.676,0.286 0.26,0.286 0.26,0.806 v 22.88 q 0,1.768 0.728,2.73 0.754,0.962 2.08,0.962 0.962,0 1.482,-0.312 0.546,-0.338 0.832,-0.754 0.312,-0.416 0.572,-0.728 0.26,-0.338 0.676,-0.364 0.338,-0.026 0.494,0.208 0.182,0.208 0.182,0.676 0,1.118 -0.806,2.132 -0.806,1.014 -2.236,1.664 -1.404,0.65 -3.224,0.65 -2.86,0 -4.55,-1.482 -1.69,-1.508 -1.69,-4.498 V 29.2 q 0,-0.624 -0.26,-0.962 -0.26,-0.338 -0.91,-0.52 z m 4.186,-0.078 v -2.054 h 8.164 q 0.52,0 0.806,0.208 0.312,0.182 0.312,0.572 0,0.546 -0.572,0.91 -0.546,0.364 -1.716,0.364 z m 20.306031,8.814 q 0,-3.692 1.092,-6.24 1.092,-2.548 2.834,-3.848 1.742,-1.326 3.718,-1.326 2.366,0 3.666,1.3 1.3,1.3 1.3,3.588 0,1.794 -0.78,2.73 -0.754,0.91 -1.976,0.91 -1.222,0 -1.898,-0.676 -0.676,-0.702 -0.676,-1.924 v -0.884 q 0,-0.858 -0.416,-1.3 -0.416,-0.442 -1.352,-0.442 -1.118,0 -2.184,0.91 -1.066,0.91 -1.742,2.704 -0.676,1.768 -0.676,4.498 z m 0.624,-9.854 0.286,6.11 v 13.728 q 0,0.624 0.286,0.988 0.312,0.338 1.014,0.442 l 2.366,0.338 q 0.52,0.078 0.78,0.312 0.286,0.208 0.286,0.598 0,0.416 -0.312,0.65 -0.286,0.234 -0.91,0.234 h -10.998 q -0.598,0 -0.884,-0.234 -0.286,-0.234 -0.286,-0.624 0,-0.312 0.208,-0.546 0.234,-0.234 0.676,-0.338 l 1.248,-0.286 q 0.52,-0.13 0.78,-0.468 0.26,-0.364 0.26,-1.066 V 30.292 q 0,-0.572 -0.208,-0.832 -0.182,-0.26 -0.624,-0.312 l -1.768,-0.052 q -0.442,-0.078 -0.65,-0.26 -0.182,-0.208 -0.182,-0.494 0,-0.338 0.234,-0.546 0.234,-0.234 0.78,-0.442 l 4.238,-1.508 q 1.04,-0.338 1.534,-0.468 0.494,-0.13 0.78,-0.13 0.52,0 0.754,0.312 0.234,0.286 0.312,1.04 z m 30.10802,20.202 v -0.52 l -0.338,-0.156 v -14.82 q 0,-2.262 -1.144,-3.458 -1.118,-1.222 -3.198,-1.222 -1.976,0 -2.964004,0.832 -0.988,0.806 -0.988,1.95 v 2.054 q 0,1.222 -0.806,1.898 -0.806,0.676 -2.262,0.676 -1.274,0 -1.95,-0.65 -0.65,-0.65 -0.65,-1.742 0,-1.612 1.248,-3.094 1.248,-1.508 3.614,-2.496 2.392,-0.988 5.798004,-0.988 4.42,0 6.578,1.898 2.158,1.898 2.158,5.096 v 14.066 q 0,0.858 0.312,1.248 0.338,0.364 0.91,0.364 0.65,0 0.91,-0.286 0.286,-0.286 0.494,-0.572 0.13,-0.182 0.26,-0.286 0.13,-0.13 0.338,-0.13 0.286,0 0.39,0.182 0.13,0.182 0.13,0.546 0,0.754 -0.52,1.534 -0.494,0.78 -1.482,1.326 -0.988,0.546 -2.444,0.546 -2.08,0 -3.25,-0.962 -1.144,-0.988 -1.144,-2.834 z m -15.496004,-2.21 q 0,-3.068 2.756,-5.044 2.756,-1.976 7.644004,-1.976 1.794,0 3.25,0.338 1.482,0.312 2.626,0.832 l -0.442,1.404 q -1.066,-0.468 -2.21,-0.754 -1.118,-0.286 -2.47,-0.286 -2.574004,0 -4.030004,1.248 -1.456,1.222 -1.456,3.354 0,2.106 1.196,3.224 1.196,1.118 3.042004,1.118 1.716,0 3.328,-0.78 1.612,-0.806 2.782,-2.262 l 0.546,1.196 q -1.56,2.106 -3.978,3.25 -2.418,1.144 -5.148004,1.144 -3.25,0 -5.356,-1.612 -2.08,-1.638 -2.08,-4.394 z M 127.13246,26.6 v 19.838 q 0,0.676 0.26,1.04 0.26,0.364 0.754,0.494 l 1.17,0.286 q 0.806,0.234 0.806,0.832 0,0.91 -1.196,0.91 h -9.308 q -0.572,0 -0.858,-0.234 -0.286,-0.234 -0.286,-0.624 0,-0.312 0.208,-0.546 0.234,-0.234 0.676,-0.338 l 1.248,-0.286 q 0.52,-0.156 0.78,-0.494 0.26,-0.338 0.26,-1.014 V 30.266 q 0,-0.572 -0.208,-0.832 -0.182,-0.26 -0.624,-0.312 l -1.768,-0.078 q -0.442,-0.078 -0.65,-0.26 -0.182,-0.182 -0.182,-0.494 0,-0.312 0.208,-0.546 0.234,-0.234 0.806,-0.416 l 4.316,-1.534 q 0.832,-0.286 1.326,-0.416 0.52,-0.13 0.936,-0.13 0.65,0 0.988,0.364 0.338,0.364 0.338,0.988 z m -0.754,5.512 -1.014,-1.014 1.144,-0.988 q 3.094,-2.782 5.434,-3.926 2.34,-1.144 4.472,-1.144 3.276,0 5.304,2.08 2.028,2.054 2.028,5.616 v 13.598 q 0,0.754 0.286,1.144 0.286,0.364 0.832,0.52 l 1.092,0.26 q 0.442,0.104 0.65,0.338 0.208,0.234 0.208,0.546 0,0.39 -0.26,0.624 -0.26,0.234 -0.884,0.234 h -9.308 q -1.196,0 -1.196,-0.91 0,-0.598 0.806,-0.832 l 1.196,-0.286 q 0.572,-0.13 0.806,-0.52 0.26,-0.39 0.26,-1.118 V 33.542 q 0,-2.6 -1.274,-3.874 -1.274,-1.274 -3.406,-1.274 -1.326,0 -2.86,0.65 -1.508,0.65 -3.198,2.08 z m 39.05203,16.198 q -3.666,-0.572 -5.33,-1.04 -1.638,-0.494 -2.08,-0.91 -0.416,-0.442 -0.416,-0.884 0,-0.52 0.39,-0.962 0.39,-0.442 1.378,-0.884 l -0.702,-0.338 q -2.106,0.312 -3.328,0.988 -1.196,0.65 -1.69,1.508 -0.494,0.832 -0.494,1.742 0,1.118 0.702,1.976 0.728,0.832 2.704,1.508 2.002,0.676 5.85,1.3 3.172,0.52 4.888,1.144 1.716,0.624 2.392,1.378 0.702,0.754 0.702,1.768 0,1.274 -0.858,2.21 -0.832,0.962 -2.6,1.456 -1.742,0.52 -4.472,0.52 -4.836,0 -6.838,-1.456 -1.976,-1.43 -1.976,-3.718 0,-1.56 1.456,-2.808 1.456,-1.222 4.316,-1.586 l -0.546,-0.754 q -5.304,0.65 -7.436,2.366 -2.106,1.742 -2.106,3.874 0,1.716 1.222,3.068 1.222,1.378 3.9,2.158 2.704,0.806 7.124,0.806 6.604,0 10.114,-2.132 3.536,-2.132 3.536,-5.46 0,-1.82 -0.936,-3.146 -0.91,-1.3 -3.042,-2.21 -2.132,-0.91 -5.824,-1.482 z m 1.17,-20.566 1.404,0.286 q 1.014,-1.82 1.664,-2.418 0.65,-0.598 1.404,-0.598 0.65,0 1.014,0.364 0.39,0.338 0.702,0.806 0.312,0.442 0.702,0.78 0.416,0.338 1.118,0.338 0.962,0 1.534,-0.702 0.572,-0.728 0.572,-1.872 0,-1.378 -0.936,-2.158 -0.91,-0.806 -2.392,-0.806 -1.69,0 -3.25,1.118 -1.534,1.092 -2.652,3.276 z m 6.552,6.656 q 0,-2.626 -1.404,-4.732 -1.378,-2.106 -3.9,-3.328 -2.496,-1.222 -5.902,-1.222 -3.406,0 -6.058,1.274 -2.626,1.248 -4.134,3.484 -1.482,2.236 -1.482,5.226 0,2.652 1.404,4.758 1.404,2.106 3.9,3.328 2.522,1.222 5.876,1.222 3.432,0 6.058,-1.248 2.652,-1.248 4.134,-3.51 1.508,-2.262 1.508,-5.252 z m -12.168,-7.436 q 2.678,-0.13 4.368,2.002 1.716,2.106 2.002,5.85 0.286,3.614 -1.014,5.616 -1.3,1.976 -3.9,2.08 -1.794,0.078 -3.172,-0.858 -1.378,-0.936 -2.21,-2.73 -0.806,-1.794 -1.014,-4.29 -0.156,-2.392 0.364,-4.082 0.52,-1.716 1.664,-2.626 1.17,-0.936 2.912,-0.962 z m 39.91002,7.852 q 0,1.17 -0.702,1.82 -0.702,0.624 -2.054,0.624 h -16.588 v -1.664 h 12.48 q 1.274,0 1.274,-1.118 0,-3.484 -1.508,-5.434 -1.508,-1.95 -4.004,-1.95 -2.002,0 -3.51,1.118 -1.508,1.118 -2.366,3.198 -0.832,2.054 -0.832,4.862 0,5.174 2.47,7.852 2.496,2.652 6.5,2.652 2.574,0 4.472,-1.144 1.898,-1.17 2.678,-3.068 0.312,-0.468 0.52,-0.598 0.234,-0.156 0.52,-0.156 0.364,0 0.52,0.312 0.156,0.286 0.13,0.676 -0.182,2.158 -1.56,3.952 -1.378,1.768 -3.692,2.808 -2.314,1.04 -5.278,1.04 -3.64,0 -6.448,-1.534 -2.782,-1.534 -4.342,-4.29 -1.56,-2.782 -1.56,-6.526 0,-3.796 1.508,-6.76 1.534,-2.99 4.316,-4.706 2.808,-1.742 6.656,-1.742 3.198,0 5.512,1.248 2.34,1.248 3.614,3.458 1.274,2.184 1.274,5.07 z m 4.238,14.274 q 0,-0.806 0.988,-1.092 l 1.716,-0.312 q 0.65,-0.156 0.962,-0.468 0.338,-0.338 0.338,-0.91 V 17.292 q 0,-0.572 -0.338,-0.884 -0.312,-0.338 -0.962,-0.494 l -1.716,-0.312 q -0.988,-0.286 -0.988,-1.092 0,-0.416 0.312,-0.65 0.312,-0.26 0.962,-0.26 h 12.636 q 4.862,0 8.84,1.43 3.978,1.404 6.812,3.978 2.86,2.574 4.394,6.084 1.534,3.484 1.534,7.722 0,4.94 -2.288,8.84 -2.262,3.9 -6.552,6.136 -4.29,2.21 -10.426,2.21 h -14.95 q -0.65,0 -0.962,-0.26 -0.312,-0.26 -0.312,-0.65 z m 15.86,-1.17 q 4.082,0 7.072,-1.742 2.99,-1.768 4.602,-5.148 1.638,-3.406 1.638,-8.372 0,-3.874 -1.118,-6.994 -1.092,-3.12 -3.198,-5.356 -2.08,-2.236 -5.018,-3.432 -2.938,-1.196 -6.604,-1.196 h -3.172 v 30.082 q 0,1.092 0.676,1.638 0.676,0.52 2.08,0.52 z m 38.91163,-1.118 v -0.52 l -0.338,-0.156 v -14.82 q 0,-2.262 -1.144,-3.458 -1.118,-1.222 -3.198,-1.222 -1.976,0 -2.964,0.832 -0.988,0.806 -0.988,1.95 v 2.054 q 0,1.222 -0.806,1.898 -0.806,0.676 -2.262,0.676 -1.274,0 -1.95,-0.65 -0.65,-0.65 -0.65,-1.742 0,-1.612 1.248,-3.094 1.248,-1.508 3.614,-2.496 2.392,-0.988 5.798,-0.988 4.42,0 6.578,1.898 2.158,1.898 2.158,5.096 v 14.066 q 0,0.858 0.312,1.248 0.338,0.364 0.91,0.364 0.65,0 0.91,-0.286 0.286,-0.286 0.494,-0.572 0.13,-0.182 0.26,-0.286 0.13,-0.13 0.338,-0.13 0.286,0 0.39,0.182 0.13,0.182 0.13,0.546 0,0.754 -0.52,1.534 -0.494,0.78 -1.482,1.326 -0.988,0.546 -2.444,0.546 -2.08,0 -3.25,-0.962 -1.144,-0.988 -1.144,-2.834 z m -15.496,-2.21 q 0,-3.068 2.756,-5.044 2.756,-1.976 7.644,-1.976 1.794,0 3.25,0.338 1.482,0.312 2.626,0.832 l -0.442,1.404 q -1.066,-0.468 -2.21,-0.754 -1.118,-0.286 -2.47,-0.286 -2.574,0 -4.03,1.248 -1.456,1.222 -1.456,3.354 0,2.106 1.196,3.224 1.196,1.118 3.042,1.118 1.716,0 3.328,-0.78 1.612,-0.806 2.782,-2.262 l 0.546,1.196 q -1.56,2.106 -3.978,3.25 -2.418,1.144 -5.148,1.144 -3.25,0 -5.356,-1.612 -2.08,-1.638 -2.08,-4.394 z m 40.60686,2.288 -2.808,5.668 -10.036,-23.114 q -0.468,-1.066 -0.962,-1.456 -0.468,-0.39 -1.638,-0.624 -0.468,-0.13 -0.676,-0.338 -0.182,-0.208 -0.182,-0.572 0,-0.39 0.286,-0.624 0.312,-0.234 0.832,-0.234 h 10.478 q 0.546,0 0.832,0.234 0.312,0.208 0.312,0.598 0,0.364 -0.208,0.598 -0.208,0.208 -0.754,0.312 l -1.092,0.182 q -1.274,0.234 -1.482,0.832 -0.208,0.572 0.416,2.054 z m -4.446,8.19 2.08,-5.2 0.702,-1.43 7.098,-17.81 q 0.624,-1.508 0.39,-2.158 -0.208,-0.65 -1.508,-0.884 l -1.118,-0.208 q -0.546,-0.13 -0.78,-0.338 -0.208,-0.234 -0.208,-0.624 0,-0.39 0.286,-0.598 0.312,-0.234 0.858,-0.234 h 7.436 q 0.494,0 0.806,0.234 0.312,0.234 0.312,0.624 0,0.312 -0.208,0.546 -0.182,0.208 -0.754,0.364 -1.222,0.312 -1.82,0.858 -0.572,0.52 -1.092,1.872 l -9.984,24.726 q -1.248,3.042 -2.392,4.706 -1.118,1.69 -2.418,2.34 -1.274,0.65 -3.016,0.65 -2.678,0 -4.186,-1.43 -1.508,-1.404 -1.508,-3.38 0,-1.404 0.65,-2.21 0.65,-0.78 1.794,-0.78 1.066,0 1.638,0.676 0.598,0.702 0.91,1.82 l 0.208,0.884 q 0.156,0.936 0.598,1.378 0.468,0.468 1.118,0.468 0.702,0 1.3,-0.39 0.624,-0.39 1.3,-1.456 0.702,-1.04 1.508,-3.016 z m 27.29997,-28.132 q -1.95,0 -3.094,1.04 -1.118,1.014 -1.118,2.626 0,0.988 0.468,1.82 0.468,0.806 1.69,1.456 1.222,0.65 3.484,1.222 3.588,0.832 5.616,2.054 2.028,1.196 2.86,2.73 0.832,1.534 0.832,3.38 0,3.328 -2.366,5.33 -2.366,2.002 -6.786,2.002 -1.612,0 -2.678,-0.286 -1.04,-0.286 -1.742,-0.572 -0.676,-0.286 -1.196,-0.286 -0.546,0 -0.832,0.312 -0.286,0.286 -0.572,0.572 -0.26,0.286 -0.702,0.286 -0.364,0 -0.572,-0.234 -0.208,-0.208 -0.364,-0.754 l -1.924,-5.486 q -0.234,-0.702 -0.156,-1.17 0.104,-0.468 0.572,-0.676 0.52,-0.182 0.858,0.026 0.364,0.182 0.65,0.65 1.17,2.184 2.496,3.432 1.326,1.222 2.834,1.742 1.508,0.52 3.068,0.52 2.444,0 3.666,-1.04 1.248,-1.04 1.248,-2.756 0,-1.014 -0.52,-1.846 -0.52,-0.858 -1.898,-1.586 -1.352,-0.728 -3.9,-1.352 -3.172,-0.754 -5.07,-1.846 -1.872,-1.118 -2.678,-2.626 -0.806,-1.534 -0.806,-3.562 0,-2.08 1.014,-3.64 1.04,-1.586 2.938,-2.47 1.898,-0.91 4.446,-0.91 1.612,0 2.626,0.312 1.04,0.312 1.69,0.65 0.676,0.312 1.196,0.312 0.546,0 0.858,-0.312 0.312,-0.338 0.572,-0.65 0.286,-0.312 0.728,-0.312 0.286,0 0.494,0.234 0.234,0.208 0.338,0.728 l 1.482,5.174 q 0.182,0.78 0.13,1.274 -0.052,0.494 -0.572,0.702 -0.468,0.182 -0.832,-0.078 -0.338,-0.26 -0.702,-0.884 -1.508,-2.834 -3.562,-4.03 -2.028,-1.222 -4.212,-1.222 z"/>
  <path fill="#8A3A1F" d="m 321.495,18.573 -0.594,-0.154 q -0.275,-0.077 -0.385,-0.165 -0.099,-0.099 -0.099,-0.242 0,-0.165 0.121,-0.253 0.121,-0.088 0.33,-0.088 h 0.693 q 0.297,0 0.473,-0.088 0.176,-0.099 0.33,-0.341 l 0.88,-1.606 q 0.154,-0.264 0.308,-0.374 0.165,-0.121 0.352,-0.121 0.187,0 0.286,0.121 0.11,0.121 0.11,0.341 v 9.68 q 0,0.748 0.308,1.155 0.319,0.407 0.88,0.407 0.407,0 0.627,-0.132 0.231,-0.143 0.352,-0.319 0.132,-0.176 0.242,-0.308 0.11,-0.143 0.286,-0.154 0.143,-0.011 0.209,0.088 0.077,0.088 0.077,0.286 0,0.473 -0.341,0.902 -0.341,0.429 -0.946,0.704 -0.594,0.275 -1.364,0.275 -1.21,0 -1.925,-0.627 -0.715,-0.638 -0.715,-1.903 V 19.2 q 0,-0.264 -0.11,-0.407 -0.11,-0.143 -0.385,-0.22 z m 1.771,-0.033 v -0.869 h 3.454 q 0.22,0 0.341,0.088 0.132,0.077 0.132,0.242 0,0.231 -0.242,0.385 -0.231,0.154 -0.726,0.154 z m 14.45062,3.036 q 0,0.495 -0.297,0.77 -0.297,0.264 -0.869,0.264 h -7.018 v -0.704 h 5.28 q 0.539,0 0.539,-0.473 0,-1.474 -0.638,-2.299 -0.638,-0.825 -1.694,-0.825 -0.847,0 -1.485,0.473 -0.638,0.473 -1.001,1.353 -0.352,0.869 -0.352,2.057 0,2.189 1.045,3.322 1.056,1.122 2.75,1.122 1.089,0 1.892,-0.484 0.803,-0.495 1.133,-1.298 0.132,-0.198 0.22,-0.253 0.099,-0.066 0.22,-0.066 0.154,0 0.22,0.132 0.066,0.121 0.055,0.286 -0.077,0.913 -0.66,1.672 -0.583,0.748 -1.562,1.188 -0.979,0.44 -2.233,0.44 -1.54,0 -2.728,-0.649 -1.177,-0.649 -1.837,-1.815 -0.66,-1.177 -0.66,-2.761 0,-1.606 0.638,-2.86 0.649,-1.265 1.826,-1.991 1.188,-0.737 2.816,-0.737 1.353,0 2.332,0.528 0.99,0.528 1.529,1.463 0.539,0.924 0.539,2.145 z M 348.21159,20.3 q 0,0.528 -0.341,0.88 -0.341,0.341 -0.902,0.341 -0.55,0 -0.858,-0.308 -0.297,-0.319 -0.297,-0.847 v -0.341 q 0,-0.759 -0.539,-1.232 -0.539,-0.484 -1.485,-0.484 -0.847,0 -1.507,0.473 -0.649,0.473 -1.034,1.353 -0.374,0.869 -0.374,2.046 0,1.441 0.495,2.431 0.495,0.99 1.353,1.518 0.858,0.517 1.936,0.517 1.056,0 1.826,-0.484 0.77,-0.495 1.1,-1.287 0.132,-0.176 0.22,-0.242 0.099,-0.077 0.22,-0.077 0.143,0 0.198,0.132 0.066,0.121 0.066,0.286 -0.066,0.902 -0.649,1.65 -0.572,0.748 -1.529,1.188 -0.946,0.44 -2.167,0.44 -1.54,0 -2.717,-0.649 -1.177,-0.649 -1.837,-1.815 -0.66,-1.177 -0.66,-2.761 0,-1.573 0.671,-2.827 0.671,-1.265 1.881,-2.013 1.21,-0.748 2.838,-0.748 1.265,0 2.189,0.407 0.924,0.396 1.408,1.045 0.495,0.649 0.495,1.408 z m 4.335,0.132 -0.429,-0.429 0.484,-0.418 q 1.32,-1.177 2.299,-1.661 0.99,-0.484 1.892,-0.484 1.386,0 2.244,0.88 0.858,0.869 0.858,2.376 v 5.753 q 0,0.319 0.121,0.484 0.121,0.154 0.352,0.22 l 0.462,0.11 q 0.187,0.044 0.275,0.143 0.088,0.099 0.088,0.231 0,0.165 -0.11,0.264 -0.11,0.099 -0.374,0.099 h -3.938 q -0.506,0 -0.506,-0.385 0,-0.253 0.341,-0.352 l 0.506,-0.121 q 0.242,-0.055 0.341,-0.22 0.11,-0.165 0.11,-0.473 v -5.412 q 0,-1.1 -0.539,-1.639 -0.539,-0.539 -1.441,-0.539 -0.561,0 -1.199,0.275 -0.638,0.275 -1.364,0.88 z m 0.319,-8.085 v 14.146 q 0,0.286 0.11,0.44 0.11,0.154 0.319,0.209 l 0.495,0.121 q 0.341,0.099 0.341,0.352 0,0.385 -0.506,0.385 h -3.938 q -0.242,0 -0.363,-0.099 -0.121,-0.099 -0.121,-0.264 0,-0.132 0.088,-0.231 0.099,-0.099 0.286,-0.143 l 0.528,-0.121 q 0.22,-0.066 0.33,-0.209 0.11,-0.143 0.11,-0.429 V 13.898 q 0,-0.253 -0.088,-0.352 -0.077,-0.11 -0.264,-0.132 l -0.748,-0.033 q -0.187,-0.033 -0.275,-0.11 -0.077,-0.077 -0.077,-0.209 0,-0.132 0.088,-0.22 0.099,-0.099 0.341,-0.187 l 1.826,-0.649 q 0.352,-0.121 0.561,-0.176 0.22,-0.055 0.396,-0.055 0.275,0 0.418,0.154 0.143,0.154 0.143,0.418 z"/>
</svg>
